<?xml version="1.0" encoding="UTF-8"?>
<!-- 
DevThemes Icon
Copyright Material (No Redistribuir) 
Creado con Inkscape 
-->
<svg width="130" height="130" version="1.1" viewBox="0 0 34.395635 34.395689" xmlns="http://www.w3.org/2000/svg">
 <title>Icon DevThemes</title>
 <flowRoot transform="translate(.057752 2.2028)" fill="#000000" font-family="'Segoe Print'" font-size="40px" letter-spacing="0px" word-spacing="0px" style="line-height:25px" xml:space="preserve"><flowRegion><rect x="3.7692" y="-.41308" width="168.36" height="86.691"/></flowRegion><flowPara/></flowRoot>
 <g transform="matrix(.30616 0 0 .42547 -1.3712 11.214)" aria-label="dt">
  <path d="m50.434 24.104q-4.1875 6.7188-8.875 10.375-4.6875 3.625-8.625 3.625-3.0312 0-4.8125-2.3125-1.75-2.3438-1.75-6.2188 0-7.9062 6.4062-16.219 6.4375-8.3125 13.875-8.3125 3.25 0 6.0312 2.7812l4.375-20.437q0.46875-2.0938 1.7188-2.8125 1.2812-0.71875 2-0.71875 2.1875 0 2.1875 3.875 0 0.6875-1.4375 5.125-2.2812 6.875-4.3438 16.906-2.0312 10-2.0312 16.063 0 6.25 2.7188 6.25 1.75 0 3.625-1.1562 0.78125-0.5625 1.4688-0.5625 1 0 1 1.3125 0 1.5938-2.8125 3.6875-2.7812 2.0938-5.7188 2.0938-5.1562 0-5.1562-9.9375 0-1.6875 0.15625-3.4062zm-4.0938-14.625q-5.0625 0-10.031 6.875-4.9688 6.8438-4.9688 12.656 0 3.9062 2.5938 3.9062 2.4375 0 5.9062-2.5625 3.5-2.5625 7.1875-8.1562 3.6875-5.625 3.6875-8.4375 0-1.375-1.2812-2.8125-1.25-1.4688-3.0938-1.4688z"/>
  <path d="m83.121 5.5104q3.2188-0.25 6.0625-0.59375 2.8125-0.3125 4.6875-0.3125 2.375 0 3 0.4375t0.625 1.5312q0 2.5312-3.5312 2.75-4.5312 0.28125-8.3438 0.78125-3.8125 0.5-4.125 0.84375-0.28125 0.3125-1.875 7.4375-1.5938 7.0938-1.5938 9.2188 0 3.4375 0.90625 4.5938 0.90625 1.125 2.7188 1.125 2.6875 0 7.4688-4.0312 1.8438-1.6562 2.8438-1.6562 1.3438 0 1.3438 1.4375 0 2.25-4.3438 5.8438-4.3125 3.5625-8.8438 3.5625-7.5625 0-7.5625-8.9062 0-3.2188 1.5625-9.9688 1.5312-6.7188 1.5312-8.0625 0-0.46875-0.75-0.46875l-3.25 0.28125q-4 0-4-3.1875 0-1.8125 1.8438-1.8125h6.4375q0.65625 0 1.1562-0.59375t1.4688-3.9688q0.96875-3.4062 1.7188-6.7188 0.75-3.2812 2.9375-3.2812 1.3438 0 2.0938 0.9375t0.75 1.75q0 0.4375-1.125 4.4688z"/>
 </g>
 <flowRoot transform="matrix(.26458 0 0 .26458 .057669 2.2028)" fill="#000000" font-family="'Segoe Print'" font-size="40px" letter-spacing="0px" word-spacing="0px" style="line-height:25px" xml:space="preserve"><flowRegion><rect x="141.96" y="17.294" width="255.06" height="85.316"/></flowRegion><flowPara/></flowRoot>
 <flowRoot transform="translate(.057752 2.2028)" fill="#000000" font-family="'Segoe Print'" font-size="40px" letter-spacing="0px" word-spacing="0px" style="line-height:25px" xml:space="preserve"><flowRegion><rect x="141.96" y="17.294" width="105.55" height="61.445"/></flowRegion><flowPara/></flowRoot>
 <flowRoot transform="translate(.057752 2.2028)" fill="#000000" font-family="'Segoe Print'" font-size="40px" letter-spacing="0px" word-spacing="0px" style="line-height:25px" xml:space="preserve"><flowRegion><rect x="158.3" y="19.689" width="242.48" height="86.691"/></flowRegion><flowPara/></flowRoot>
 <flowRoot transform="translate(.057752 2.2028)" fill="#000000" font-family="'Segoe Print'" font-size="40px" letter-spacing="0px" word-spacing="0px" style="line-height:25px" xml:space="preserve"><flowRegion><rect x="141.96" y="17.294" width="260.08" height="86.573"/></flowRegion><flowPara/></flowRoot>
 <path d="m33.299 17.372a15.79 15.304 0 0 1 -15.79 15.304 15.79 15.304 0 0 1 -15.79 -15.304 15.79 15.304 0 0 1 15.79 -15.304 15.79 15.304 0 0 1 15.79 15.304z" fill="none" stroke="#0ad2ad" stroke-dasharray="10.15547295, 0.84628941" stroke-dashoffset=".79375" stroke-linejoin="bevel" stroke-width=".84629" style="paint-order:normal"/>
</svg>
