<?xml version="1.0" encoding="UTF-8"?>
<!-- 
DevThemes Logo
Copyright Material (No Redistribuir) 
Creado con Inkscape 
-->
<svg width="403.3" height="120.2" version="1.1" viewBox="0 0 106.70584 31.802782" xmlns="http://www.w3.org/2000/svg">
 <title>Logo DevThemes</title>
 <flowRoot fill="black" font-family="'Segoe Print'" font-size="40px" letter-spacing="0px" word-spacing="0px" style="line-height:25px" xml:space="preserve"><flowRegion><rect x="3.7692" y="-.41308" width="168.36" height="86.691"/></flowRegion><flowPara/></flowRoot>
 <g transform="matrix(.30616 0 0 .35422 -5.7504 11.42)" aria-label="dev">
  <path d="m50.434 24.104q-4.1875 6.7188-8.875 10.375-4.6875 3.625-8.625 3.625-3.0312 0-4.8125-2.3125-1.75-2.3438-1.75-6.2188 0-7.9062 6.4062-16.219 6.4375-8.3125 13.875-8.3125 3.25 0 6.0312 2.7812l4.375-20.437q0.46875-2.0938 1.7188-2.8125 1.2812-0.71875 2-0.71875 2.1875 0 2.1875 3.875 0 0.6875-1.4375 5.125-2.2812 6.875-4.3438 16.906-2.0312 10-2.0312 16.063 0 6.25 2.7188 6.25 1.75 0 3.625-1.1562 0.78125-0.5625 1.4688-0.5625 1 0 1 1.3125 0 1.5938-2.8125 3.6875-2.7812 2.0938-5.7188 2.0938-5.1562 0-5.1562-9.9375 0-1.6875 0.15625-3.4062zm-4.0938-14.625q-5.0625 0-10.031 6.875-4.9688 6.8438-4.9688 12.656 0 3.9062 2.5938 3.9062 2.4375 0 5.9062-2.5625 3.5-2.5625 7.1875-8.1562 3.6875-5.625 3.6875-8.4375 0-1.375-1.2812-2.8125-1.25-1.4688-3.0938-1.4688z" style=""/>
  <path d="m97.152 26.448q0 3.1875-5.6562 7.6875-5.625 4.5-11.625 4.5-5.0312 0-7.7812-2.9688-2.7188-2.9688-2.7188-8.2812 0-8.9375 6.0312-17 6.0312-8.0625 13.188-8.0625 2.3438 0 3.8125 1.5312 1.5 1.5312 1.5 3.6875 0 4.8125-4.7188 9.2188t-12.625 8.6562q-1.625 0.84375-1.625 2.1875 0 2.5938 1.5 4.1562t4.4375 1.5625q6.7188 0 13.719-7.4375 1.0312-1.0312 1.5625-1.0312 1 0 1 1.5938zm-21.719-4.875q13.25-7.875 13.25-12.656 0-1.875-1.6875-1.875-2.875 0-6.5 4.2188-3.5938 4.2188-5.0625 10.312z" style=""/>
  <path d="m109.65 37.417q0.0625-1.8125-2.6562-9.375-5.1562-14.094-5.1562-19.625 0-4.4062 2.9375-4.4062 2.875 0 2.875 3.9375 0 3.2188 0.1875 4.9688 0.21875 1.7188 1.5 6.3438 1.2812 4.5938 2.8125 8.5312 0.78125 2.0625 1.125 3.1562 0.65625-1 1.6875-2.75 5.5-9.25 8.75-14.25 3.2812-5 5.3438-7.2813t3.0312-2.7188q0.96875-0.46875 1.9688-0.46875 1.2188 0 1.9062 0.875 0.71875 0.875 0.71875 2 0 1.4688-2.5625 3.1875-2.4062 1.625-7.0938 8.1563t-10.125 16.656q-2.7812 5.125-4.2812 5.125-1.3125 0-2.9688-2.0625z" style=""/>
 </g>
 <path d="m1.3353 3.8536h36.222v23.622h-36.222z" fill="none" stroke="#0ad2ad" stroke-dasharray="11.36729219, 0.94727435" stroke-linejoin="bevel" stroke-width=".94727"/>
 <g>
  <flowRoot transform="matrix(.26458 0 0 .26458 -8.2987e-5 0)" fill="#000000" font-family="'Segoe Print'" font-size="40px" letter-spacing="0px" word-spacing="0px" style="line-height:25px" xml:space="preserve"><flowRegion><rect x="141.96" y="17.294" width="255.06" height="85.316"/></flowRegion><flowPara/></flowRoot>
  <flowRoot fill="black" font-family="'Segoe Print'" font-size="40px" letter-spacing="0px" word-spacing="0px" style="line-height:25px" xml:space="preserve"><flowRegion><rect x="141.96" y="17.294" width="105.55" height="61.445"/></flowRegion><flowPara/></flowRoot>
  <flowRoot fill="black" font-family="'Segoe Print'" font-size="40px" letter-spacing="0px" word-spacing="0px" style="line-height:25px" xml:space="preserve"><flowRegion><rect x="158.3" y="19.689" width="242.48" height="86.691"/></flowRegion><flowPara/></flowRoot>
  <flowRoot fill="black" font-family="'Segoe Print'" font-size="40px" letter-spacing="0px" word-spacing="0px" style="line-height:25px" xml:space="preserve"><flowRegion><rect x="141.96" y="17.294" width="260.08" height="86.573"/></flowRegion><flowPara/></flowRoot>
  <g transform="matrix(.23389 0 0 .2944 2.5471 10.476)" aria-label="themes">
   <path d="m178.05 8.271q4.006-0.31115 7.5453-0.73897 3.5004-0.38893 5.834-0.38893 2.9559 0 3.7338 0.54451 0.77787 0.54451 0.77787 1.9058 0 3.1504-4.3949 3.4226-5.6395 0.35004-10.384 0.97233-4.745 0.62229-5.1339 1.0501-0.35003 0.38893-2.3336 9.2566-1.9836 8.8288-1.9836 11.474 0 4.2783 1.1279 5.7173 1.1279 1.4002 3.3837 1.4002 3.3448 0 9.2955-5.0172 2.2947-2.0613 3.5393-2.0613 1.6724 0 1.6724 1.7891 0 2.8003-5.4062 7.273-5.3673 4.4338-11.007 4.4338-9.4122 0-9.4122-11.085 0-4.006 1.9447-12.407 1.9058-8.362 1.9058-10.034 0-0.5834-0.93344-0.5834l-4.0449 0.35004q-4.9783 0-4.9783-3.9671 0-2.2558 2.2947-2.2558h8.012q0.81676 0 1.439-0.73897 0.62229-0.73897 1.828-4.9394 1.2057-4.2394 2.1391-8.362 0.93344-4.0838 3.656-4.0838 1.6724 0 2.6058 1.1668t0.93344 2.178q0 0.54451-1.4002 5.5617z" style=""/>
   <path d="m205.94 35.846q14.468-26.72 23.842-26.72 2.4892 0 4.0449 2.8392 1.5557 2.8392 2.5281 12.601 0.97233 10.384 4.3949 15.013 1.7502 2.3725 1.7502 3.5004 0 1.0112-1.1668 1.8669t-2.4892 0.85565q-3.0337 0-5.3673-3.3837-2.3336-3.4226-2.9948-11.979-0.66119-8.0898-1.4002-10.579t-2.4503-2.4892q-4.0838 0-16.452 21.352-3.6949 6.3785-5.445 8.362-1.7502 1.9447-3.1892 1.9447-1.7113 0-2.8781-1.0112-1.1668-1.0112-1.1668-2.4892 0-1.089 0.62229-4.2005 4.7839-24.697 7.5453-48.85 0.62229-5.6395 1.9836-7.5064 1.4002-1.8669 2.3336-1.8669 1.6724 0 3.0337 1.3613 1.3613 1.3613 1.3613 3.7726 0 7.1564-3.5004 19.641-1.7113 6.184-3.6171 15.713-1.9058 9.5288-1.9058 11.785 0 0.46672 0.42783 0.46672z" style=""/>
   <path d="m282.79 34.329q0 3.9671-7.0397 9.5677-7.0008 5.6006-14.468 5.6006-6.2618 0-9.6844-3.6949-3.3837-3.6949-3.3837-10.307 0-11.123 7.5064-21.158 7.5064-10.034 16.413-10.034 2.917 0 4.745 1.9058 1.8669 1.9058 1.8669 4.5894 0 5.9896-5.8729 11.474-5.8729 5.4839-15.713 10.773-2.0224 1.0501-2.0224 2.7225 0 3.2281 1.8669 5.1728 1.8669 1.9447 5.5228 1.9447 8.362 0 17.074-9.2566 1.2835-1.2835 1.9447-1.2835 1.2446 0 1.2446 1.9836zm-27.031-6.0673q16.491-9.8011 16.491-15.752 0-2.3336-2.1002-2.3336-3.5782 0-8.0898 5.2506-4.4727 5.2506-6.3007 12.835z" style=""/>
   <path d="m320.24 16.75q-3.6171 0.07779-15.48 21.43-4.006 7.1952-4.6672 7.8564-0.66119 0.62229-2.4503 1.1279-1.7502 0.50561-2.917 0.50561-2.6058 0-2.6058-10.151 0-5.7173 2.4503-20.691 1.0112-6.0673 1.0112-8.6732 0-2.567 2.2947-2.567 4.3172 0 4.3172 6.2229 0 2.917-1.439 11.435-1.6724 9.7233-1.7113 11.824 2.4114-2.3336 7.0786-10.229 6.6118-10.812 9.7233-13.69 3.1504-2.917 6.4952-2.917 2.5281 0 4.006 3.3837 1.5168 3.3837 1.828 16.141 0.0778 3.1892 0.5834 4.745 0.50561 1.5557 0.73897 1.5557 1.828 0 7.9342-12.446 3.267-6.573 6.3396-9.9956 3.1115-3.4226 6.8841-3.4226 3.1504 0 4.5894 3.267 1.439 3.2281 2.0613 9.6066 0.5834 6.4563 1.7891 11.824 1.2446 5.3673 4.5116 6.8841 2.2169 1.0501 2.2169 2.4503 0 1.3613-1.8669 2.8003-1.8669 1.439-3.4226 1.439-3.1115 0-5.5617-3.8115-2.4503-3.8115-3.6948-16.491-0.54451-5.095-1.0501-7.2341-0.50561-2.1391-1.5946-2.1391-1.6335 0-3.8893 3.1115-2.2169 3.1115-7.1952 12.64-3.8893 7.4286-5.9118 9.9178-1.9836 2.4503-3.8504 2.4503-1.6724 0-2.9948-1.3224-1.3224-1.3613-1.6724-3.2281-0.35004-1.9058-0.73897-9.2955-0.5834-12.29-2.1391-14.313z" style=""/>
   <path d="m406 34.329q0 3.9671-7.0397 9.5677-7.0008 5.6006-14.468 5.6006-6.2618 0-9.6844-3.6949-3.3837-3.6949-3.3837-10.307 0-11.123 7.5064-21.158 7.5064-10.034 16.413-10.034 2.917 0 4.745 1.9058 1.8669 1.9058 1.8669 4.5894 0 5.9896-5.8729 11.474-5.8729 5.4839-15.713 10.773-2.0224 1.0501-2.0224 2.7225 0 3.2281 1.8669 5.1728 1.8669 1.9447 5.5228 1.9447 8.362 0 17.074-9.2566 1.2835-1.2835 1.9447-1.2835 1.2446 0 1.2446 1.9836zm-27.031-6.0673q16.491-9.8011 16.491-15.752 0-2.3336-2.1002-2.3336-3.5782 0-8.0898 5.2506-4.4727 5.2506-6.3007 12.835z" style=""/>
   <path d="m433.66 38.608q0-2.5281-6.2229-5.7562-7.8953-4.0449-10.696-6.4563-2.7614-2.4503-2.7614-5.4451 0-7.7398 7.7398-12.835 7.7786-5.095 12.679-5.095 3.1504 0 4.5505 1.089 1.439 1.089 1.439 3.7726 0 1.2057-1.0501 2.0613-1.0112 0.85565-1.5946 0.85565-0.42783 0-1.6724-0.5834-1.2446-0.54451-1.6335-0.54451-1.9447 0-7.8953 2.8392-5.9507 2.8392-5.9507 6.4174 0 2.178 2.1002 3.9671 2.1002 1.7502 7.5453 4.3171 4.3949 2.1002 7.0008 4.5116 2.6447 2.3725 2.6447 5.6006 0 5.9507-8.2065 9.3344-8.2065 3.3448-15.674 3.3448-6.3007 0-6.3007-4.2783 0-1.4779 1.4002-2.178 1.439-0.70008 2.8781-0.70008 0.5834 0 2.2169 0.38893 1.5946 0.38893 2.1002 0.38893 4.3171 0 9.2566-1.439 4.9394-1.439 6.1062-3.5782z" style=""/>
  </g>
 </g>
</svg>
